<svg width="24" height="24" viewBox="0 0 24 24" fill="none" xmlns="http://www.w3.org/2000/svg">
<g clip-path="url(#clip0_2986_5940)">
<path d="M18.1735 21.7511C18.0436 21.5273 17.7569 21.4511 17.5328 21.5809L17.5148 21.5913C17.2909 21.7212 17.2147 22.008 17.3446 22.232C17.4315 22.3818 17.5888 22.4655 17.7504 22.4655C17.8302 22.4655 17.9112 22.445 17.9852 22.4021L18.0033 22.3917C18.2271 22.2618 18.3033 21.975 18.1735 21.7511Z" fill="#6E7CA0"/>
<path d="M22.3919 6.00371C20.7896 3.22847 18.2025 1.24336 15.1072 0.413956C12.0119 -0.41545 8.77887 0.0102217 6.00364 1.61246C3.22845 3.21469 1.24329 5.80182 0.413935 8.89711C-0.415424 11.9924 0.0102008 15.2255 1.61244 18.0007C3.04967 20.4901 5.33398 22.382 8.04458 23.3279C9.32947 23.7762 10.6708 23.9999 12.0101 23.9999C13.4662 23.9999 14.9198 23.7353 16.2937 23.2072C16.5354 23.1143 16.6559 22.8432 16.563 22.6015C16.4701 22.3599 16.1989 22.2392 15.9574 22.3322C12.3002 23.7379 8.34101 23.0992 5.38306 20.8789L5.80301 18.6868L6.00537 18.6211C6.77004 18.3727 7.19004 17.5484 6.9417 16.7837L6.7932 16.3267C6.75884 16.221 6.75903 16.1092 6.79367 16.0035C6.92394 15.6064 6.87739 15.1719 6.66594 14.8113C6.45448 14.4508 6.098 14.198 5.68779 14.1178L4.62983 13.9111L2.58851 12.3591C2.46622 12.2661 2.30614 12.2389 2.15998 12.2864L0.964857 12.6746C0.939498 12.2471 0.939123 11.8198 0.963216 11.3948C1.01037 11.4387 1.04108 11.4685 1.05997 11.4881C1.08336 11.5271 1.11233 11.5628 1.14626 11.5937C1.24386 11.6826 1.33226 11.7229 1.51789 11.7229C1.68847 11.7229 1.94098 11.6889 2.35794 11.6273C2.75337 11.5688 3.14675 11.503 3.15064 11.5023C3.30828 11.4759 3.44154 11.3709 3.50426 11.224C3.56698 11.077 3.55044 10.9082 3.46039 10.7761L2.88565 9.9331L3.70887 9.34444C3.76372 9.30521 3.80947 9.25463 3.84298 9.19613L5.11906 6.96839L5.63342 6.41724C6.15903 5.85389 6.30903 5.02969 6.0155 4.31738C5.84234 3.89724 5.5399 3.54746 5.16162 3.31172C5.57131 2.98964 6.00814 2.69227 6.47239 2.42428C8.17573 1.44085 10.0346 0.964269 11.8739 0.946034L11.0369 1.99599L7.93311 3.0841C7.80706 3.12825 7.70581 3.22416 7.6549 3.34763L6.78809 5.44894C6.72654 5.59824 6.74609 5.76858 6.83989 5.90002L8.10589 7.67339C7.92458 7.83882 7.74809 8.07975 7.53729 8.37891C7.44486 8.51011 7.35758 8.634 7.29725 8.70347C7.24479 8.76394 7.19229 8.823 7.14026 8.8815C6.86797 9.18783 6.58644 9.50466 6.38642 9.92785C5.94664 10.8587 6.03547 11.9407 6.61822 12.7515C7.1817 13.5355 8.11067 13.9341 9.10217 13.8174C9.2637 13.7985 9.41431 13.7612 9.56004 13.7251C9.9619 13.6257 10.0892 13.6158 10.2181 13.7364C10.2808 13.7952 10.2866 13.8063 10.2853 14.0055C10.2845 14.1322 10.2835 14.2899 10.3272 14.4699C10.3971 14.758 10.578 14.9571 10.7233 15.117C10.7956 15.1965 10.8703 15.2787 10.8933 15.3338C11.0395 15.6842 10.9759 15.8782 10.8364 16.3034C10.8244 16.3397 10.8122 16.3769 10.8 16.4149C10.5881 17.0709 10.8835 17.7217 11.1441 18.2957C11.2287 18.4821 11.3087 18.6581 11.361 18.8136C11.7825 20.0642 12.0984 20.3506 12.352 20.4659C12.4848 20.5263 12.6222 20.5528 12.761 20.5527C13.4367 20.5527 14.1418 19.9253 14.4657 19.5276C14.6692 19.2778 14.7193 19.0277 14.7559 18.8451C14.7741 18.7542 14.7884 18.6825 14.8158 18.6356C14.8577 18.5639 14.9071 18.5083 14.9696 18.4379C15.0952 18.2964 15.2517 18.1203 15.353 17.8012C15.4299 17.5587 15.4858 17.4993 15.671 17.302C15.7033 17.2678 15.7377 17.2311 15.7745 17.191C16.3989 16.5116 16.2381 15.9927 16.0678 15.4432C15.9245 14.9809 16.1751 14.6852 16.7811 14.1209C17.0438 13.8762 17.3154 13.6233 17.5254 13.3193C17.6172 13.1863 17.8968 12.7816 17.7238 12.3805C17.5542 11.9873 17.1233 11.9212 16.7771 11.8681C16.6404 11.8471 16.4337 11.8154 16.368 11.7724C16.078 11.5828 15.9005 11.1871 15.7289 10.8044C15.6948 10.7282 15.6611 10.653 15.6269 10.58C15.566 10.4498 15.5051 10.2923 15.4406 10.1255C15.2701 9.6841 15.0768 9.1838 14.7478 8.83505C14.4521 8.52169 13.8946 8.37075 13.4027 8.23753C13.2373 8.19277 13.0812 8.15049 12.9782 8.11247C12.8919 8.0806 12.7982 8.07483 12.7089 8.09583C12.4695 8.15194 12.3201 8.21377 12.2092 8.30264C12.1799 8.32613 12.0932 8.40324 12.0424 8.52717C11.8707 8.44482 11.6348 8.28755 11.4896 8.19075C11.4866 8.18874 11.4835 8.18672 11.4805 8.18471C11.5295 7.98886 11.4852 7.83169 11.4387 7.73353C11.1769 7.17966 10.3077 7.22302 10.1362 7.2376C10.0388 7.24575 9.91559 7.25011 9.78523 7.25471C9.58048 7.26197 9.35417 7.27013 9.13025 7.29525L9.14178 7.2631C9.31175 6.78952 9.764 6.47133 10.2672 6.47133H10.5336C10.7924 6.47133 11.0023 6.26143 11.0023 6.00263C11.0023 5.74383 10.7924 5.53392 10.5336 5.53392H10.2672C9.52015 5.53392 8.83611 5.92707 8.45272 6.54586L7.75358 5.5665L8.44142 3.89921L11.4744 2.83589C11.5575 2.80674 11.6308 2.75471 11.6858 2.68575L13.0341 0.99455C16.4791 1.32225 19.7219 3.25378 21.5802 6.47232C22.0751 7.32961 22.4412 8.23214 22.6847 9.15525L22.486 9.33244C22.2266 9.56386 22.0746 9.89578 22.0688 10.2432C22.0688 10.247 22.0687 10.2507 22.0685 10.2545L21.7448 9.36422C21.6966 9.23138 21.6255 9.10955 21.5337 9.00216L20.9563 8.32608C20.7324 8.064 20.4065 7.91377 20.0619 7.91377H19.355C19.1041 7.91377 18.8748 8.05121 18.7565 8.27232C18.6381 8.49347 18.651 8.76057 18.7902 8.96925L18.8617 9.07664C18.405 9.46941 17.8767 9.78371 17.3142 9.99568L16.3453 8.13975V7.72571C16.3453 7.59764 16.2929 7.47507 16.2002 7.38671L15.3277 6.55378C15.2796 6.50785 15.2222 6.47269 15.1595 6.45061L14.3741 6.17461C14.1297 6.08864 13.8622 6.21722 13.7765 6.46139C13.6906 6.70566 13.819 6.97318 14.0632 7.059L14.7534 7.30158L15.4079 7.92628V8.25478C15.4079 8.3303 15.4262 8.40474 15.4611 8.47172L16.6741 10.7952C16.7832 11.0042 17.0308 11.0998 17.2518 11.018L17.605 10.8878C18.4255 10.5852 19.1861 10.0984 19.8044 9.4801C19.9624 9.32208 19.987 9.07463 19.863 8.88868L19.838 8.85122H20.0619C20.1319 8.85122 20.1981 8.88174 20.2436 8.93499L20.821 9.61107C20.8396 9.63286 20.854 9.65752 20.8639 9.68457L21.5011 11.4369C21.5559 11.5875 21.6837 11.6996 21.84 11.7343C21.8738 11.7417 21.9078 11.7454 21.9416 11.7454C22.0645 11.7454 22.1842 11.697 22.273 11.6081L22.5763 11.3048C22.7684 11.1126 22.9006 10.8695 22.9638 10.6C23.4329 14.3596 21.9588 18.2488 18.8428 20.6944C18.6391 20.8542 18.6036 21.1488 18.7635 21.3525C18.9233 21.5562 19.2178 21.5917 19.4216 21.4318C21.6712 19.6662 23.2167 17.1408 23.7733 14.3208C24.3351 11.4737 23.8446 8.51986 22.3919 6.00371ZM2.21633 13.2537L4.14912 14.7233C4.20626 14.7668 4.27254 14.7965 4.34295 14.8102L5.50789 15.0378C5.65658 15.0669 5.78061 15.1548 5.85725 15.2855C5.93389 15.4162 5.95001 15.5673 5.90286 15.7113C5.80583 16.0072 5.80536 16.3202 5.90159 16.6163L6.05009 17.0732C6.13883 17.3463 5.98873 17.6408 5.71568 17.7295L5.24989 17.8808C5.08737 17.9336 4.96653 18.0707 4.93442 18.2384L4.55951 20.1954C3.73531 19.441 3.01165 18.5495 2.42426 17.532C1.70764 16.2909 1.25989 14.9671 1.06254 13.6286L2.21633 13.2537ZM4.94806 5.77767L4.39667 6.36844C4.37206 6.39483 4.35054 6.42399 4.33259 6.4553L3.08047 8.64136L1.96761 9.43711C1.76033 9.58533 1.70942 9.87188 1.85295 10.0824L2.26915 10.6929C2.02925 10.7287 1.81395 10.7581 1.67079 10.7737C1.64328 10.7473 1.6145 10.7205 1.58473 10.6929C1.47331 10.5894 1.31848 10.4512 1.08767 10.2492C1.46834 7.8931 2.60365 5.67347 4.38922 3.97917C4.73112 4.08685 5.01172 4.34189 5.14878 4.67457C5.303 5.04872 5.22415 5.48175 4.94806 5.77767ZM8.76978 8.33907C8.97884 8.22141 9.46409 8.20421 9.81837 8.19164C9.96036 8.18663 10.0945 8.18185 10.2143 8.17182C10.2776 8.16652 10.3478 8.1675 10.414 8.17266C10.3844 8.2486 10.3748 8.33194 10.3877 8.41463C10.4102 8.56008 10.4999 8.68641 10.6296 8.75583C10.7176 8.80289 10.84 8.8845 10.9695 8.97089C11.3359 9.21511 11.7511 9.49191 12.1412 9.51675C12.496 9.53977 12.6934 9.3376 12.7779 9.25149C12.7847 9.24464 12.791 9.2378 12.7978 9.23157C12.8454 9.19275 12.89 9.14072 12.9232 9.07796C12.9982 9.09938 13.0769 9.12071 13.1577 9.1426C13.4352 9.21774 13.9518 9.35761 14.066 9.47855C14.2687 9.69347 14.4267 10.1025 14.5662 10.4634C14.6366 10.6458 14.7032 10.818 14.7778 10.9776C14.8099 11.0461 14.8415 11.1166 14.8735 11.188C15.0898 11.6705 15.335 12.2173 15.855 12.5573C16.0909 12.7114 16.3799 12.7557 16.635 12.7949C16.6659 12.7996 16.7012 12.805 16.7371 12.8109C16.5857 13.0222 16.3701 13.2229 16.1424 13.435C15.5621 13.9754 14.84 14.6479 15.1725 15.7208C15.3295 16.2275 15.3368 16.2822 15.0844 16.5568C15.05 16.5943 15.0179 16.6284 14.9879 16.6604C14.7717 16.8905 14.6009 17.0723 14.4596 17.5176C14.4185 17.6469 14.3653 17.7068 14.2687 17.8156C14.1914 17.9026 14.0952 18.011 14.0065 18.1628C13.9002 18.3448 13.865 18.52 13.8368 18.6608C13.809 18.7993 13.7933 18.8688 13.7389 18.9356C13.6151 19.0875 13.3842 19.3082 13.1472 19.4588C12.9268 19.5987 12.7982 19.6178 12.7544 19.6152C12.7044 19.5616 12.5232 19.3268 12.2495 18.5143C12.182 18.3139 12.0883 18.1076 11.9977 17.9082C11.7981 17.4685 11.5917 17.0138 11.6921 16.7031C11.704 16.6664 11.7157 16.6306 11.7272 16.5956C11.8876 16.1067 12.039 15.645 11.7585 14.9728C11.6731 14.7681 11.5371 14.6185 11.4173 14.4865C11.3397 14.4012 11.2518 14.3044 11.2383 14.2487C11.2218 14.1808 11.2223 14.1024 11.2229 14.0116C11.2245 13.7667 11.2269 13.3966 10.859 13.0521C10.3403 12.5665 9.7354 12.7161 9.33509 12.8151C9.21214 12.8455 9.09598 12.8743 8.99304 12.8864C8.33455 12.9635 7.74664 12.7151 7.37961 12.2043C6.99565 11.6701 6.93992 10.9512 7.2342 10.3282C7.37665 10.0268 7.59186 9.78455 7.84104 9.50424C7.89547 9.44297 7.9504 9.38119 8.00534 9.31791C8.09675 9.21253 8.19734 9.06985 8.3037 8.91877C8.43069 8.73853 8.66712 8.40291 8.76978 8.33907Z" fill="#6E7CA0"/>
<path d="M19.2206 16.1379L18.9951 15.2879C18.9458 15.1022 18.7883 14.9654 18.5976 14.9427C18.4068 14.9204 18.2217 15.0158 18.13 15.1846C18.0786 15.2793 18.0324 15.3796 17.9877 15.4766C17.9124 15.6397 17.8346 15.8085 17.7537 15.9016C17.7082 15.9539 17.5914 16.0103 17.4785 16.0648C17.2086 16.195 16.839 16.3734 16.6978 16.8235C16.6102 17.1027 16.6429 17.3235 16.6668 17.4848C16.6875 17.6246 16.6923 17.6731 16.6548 17.761L16.6501 17.7719C16.5009 18.1221 16.2233 18.7739 16.6126 19.328C16.8903 19.7234 17.1823 19.8251 17.4093 19.8251C17.4536 19.8252 17.4955 19.8213 17.5342 19.815C18.0124 19.7368 18.3718 19.2395 18.6655 18.2497L19.2169 16.3915C19.2414 16.3089 19.2427 16.2211 19.2206 16.1379ZM17.7669 17.983C17.6172 18.4877 17.4847 18.7233 17.4082 18.8277C17.3994 18.8165 17.3899 18.8037 17.3796 18.7891C17.2901 18.6615 17.4239 18.3473 17.5125 18.1393L17.5173 18.1283C17.6601 17.793 17.6219 17.5355 17.5941 17.3474C17.5763 17.227 17.5699 17.1752 17.5923 17.1041C17.6106 17.0457 17.7205 16.9889 17.8859 16.9091C17.9593 16.8736 18.0401 16.8347 18.1216 16.7875L17.7669 17.983Z" fill="#6E7CA0"/>
<path d="M12.6595 5.57172L12.6279 5.56065C12.3838 5.47515 12.1161 5.60355 12.0305 5.84781C11.9448 6.09212 12.0733 6.35955 12.3176 6.44523L12.3492 6.4563C12.4005 6.4743 12.4528 6.48283 12.5044 6.48283C12.6979 6.48283 12.879 6.36203 12.9467 6.16914C13.0324 5.92483 12.9038 5.65736 12.6595 5.57172Z" fill="#6E7CA0"/>
</g>
<defs>
<clipPath id="clip0_2986_5940">
<rect width="24" height="24" fill="white"/>
</clipPath>
</defs>
</svg>
