<svg width="185" height="185" viewBox="0 0 185 185" fill="none" xmlns="http://www.w3.org/2000/svg">
<g clip-path="url(#clip0_2343_10823)">
<path d="M6.10673 125.777L59.2372 178.908C60.3852 179.352 61.5333 179.765 62.6966 180.163L4.85156 122.303C5.24954 123.466 5.66283 124.629 6.10673 125.777Z" fill="#0083FF"/>
<path d="M1.66951 110.302L74.7144 183.347C75.6022 183.515 76.5053 183.683 77.3931 183.821L1.17969 107.623C1.33276 108.511 1.48583 109.414 1.66951 110.302Z" fill="#0083FF"/>
<path d="M0.0918418 97.7196L87.2803 184.908C88.0457 184.954 88.811 184.985 89.5764 185L0 95.4082C0.0306139 96.1889 0.0612279 96.9542 0.0918418 97.7196Z" fill="#0083FF"/>
<path d="M0.136719 86.7289L98.2697 184.862C98.9585 184.816 99.6473 184.77 100.321 184.709L0.289788 84.6777C0.228561 85.3665 0.18264 86.0401 0.136719 86.7289Z" fill="#0083FF"/>
<path d="M1.62191 74.9893C1.49945 75.6015 1.39231 76.2291 1.28516 76.8567L108.158 183.73C108.25 183.715 108.357 183.699 108.449 183.684L109.383 182.75L1.62191 74.9893Z" fill="#0083FF"/>
<path d="M114.877 177.239L3.77889 66.126C3.61051 66.6923 3.44213 67.2587 3.28906 67.8404L113.79 178.341L114.877 177.239Z" fill="#0083FF"/>
<path d="M120.389 171.729L6.62759 57.9521C6.41329 58.4726 6.2143 59.0083 6 59.5288L119.287 172.816L120.389 171.729Z" fill="#0083FF"/>
<path d="M125.899 166.218L10.0863 50.3906C9.84139 50.8804 9.59647 51.3703 9.35156 51.8601L124.812 167.321L125.899 166.218Z" fill="#0083FF"/>
<path d="M131.427 160.707L14.0841 43.3643C13.7932 43.8235 13.5177 44.2674 13.2422 44.7266L130.325 161.81L131.427 160.707Z" fill="#0083FF"/>
<path d="M136.936 155.197L18.5822 36.8438C18.2607 37.257 17.9546 37.6856 17.6484 38.1142L135.834 156.299L136.936 155.197Z" fill="#0083FF"/>
<path d="M142.446 149.687L23.5565 30.7979C23.2044 31.1805 22.8677 31.5785 22.5156 31.9612L141.328 150.774L142.446 149.687Z" fill="#0083FF"/>
<path d="M147.958 144.177L28.9924 25.2109C28.6097 25.563 28.2424 25.9304 27.875 26.2977L146.856 145.279L147.958 144.177Z" fill="#0083FF"/>
<path d="M153.468 138.665L34.9003 20.0977C34.487 20.4191 34.0891 20.7559 33.6758 21.0773L152.351 139.752L153.468 138.665Z" fill="#0083FF"/>
<path d="M158.98 133.155L41.2695 15.4443C40.8256 15.7352 40.397 16.0413 39.9531 16.3321L157.863 134.242L158.98 133.155Z" fill="#0083FF"/>
<path d="M164.491 127.63L48.1426 11.2969C47.6681 11.5571 47.1936 11.8173 46.7344 12.0928L163.389 128.747L164.491 127.63Z" fill="#0083FF"/>
<path d="M170 122.119L55.5346 7.66895C55.0295 7.89855 54.509 8.11285 54.0039 8.34245L168.883 123.221L170 122.119Z" fill="#0083FF"/>
<path d="M175.51 116.609L63.5089 4.62305C62.9579 4.80673 62.4068 4.99041 61.8711 5.1894L174.408 117.726L175.51 116.609Z" fill="#0083FF"/>
<path d="M181.021 111.098L72.1581 2.23438C71.5611 2.37214 70.9642 2.5099 70.3672 2.64766L179.919 112.2L181.021 111.098Z" fill="#0083FF"/>
<path d="M184.37 103.429L81.5687 0.642578C80.9105 0.719113 80.2676 0.795648 79.6094 0.88749L184.11 105.388C184.202 104.745 184.294 104.087 184.37 103.429Z" fill="#0083FF"/>
<path d="M184.998 93.0511L91.947 0C91.2276 0 90.4929 0.015307 89.7734 0.0306139L184.952 95.2093C184.983 94.5052 184.998 93.7705 184.998 93.0511Z" fill="#0083FF"/>
<path d="M184.342 81.357L103.644 0.658656C102.818 0.566814 102.006 0.474972 101.18 0.398438L184.603 83.8214C184.526 83.0101 184.434 82.1836 184.342 81.357Z" fill="#0083FF"/>
<path d="M181.619 67.6265L117.391 3.38319C116.411 3.10767 115.417 2.84745 114.406 2.60254L182.384 70.5808C182.155 69.6011 181.895 68.6062 181.619 67.6265Z" fill="#0083FF"/>
<path d="M174.299 49.2735L135.725 10.7C134.287 9.93461 132.832 9.21518 131.348 8.52637L176.473 53.6513C175.784 52.1818 175.064 50.7124 174.299 49.2735Z" fill="#0083FF"/>
</g>
<defs>
<clipPath id="clip0_2343_10823">
<rect width="185" height="185" fill="white"/>
</clipPath>
</defs>
</svg>
