<svg width="1440" height="203" viewBox="0 0 1440 203" fill="none" xmlns="http://www.w3.org/2000/svg">
<circle cx="1382.09" cy="95.3349" r="57.9091" fill="#F4F7F8"/>
<path d="M1375.94 93.1542C1375.94 89.2916 1379.08 86.1595 1382.95 86.1595C1386.82 86.1595 1389.95 89.2916 1389.95 93.1542C1389.95 97.0168 1386.82 100.149 1382.95 100.149C1379.08 100.149 1375.94 97.0168 1375.94 93.1542ZM1372.16 93.1542C1372.16 99.1048 1376.99 103.928 1382.95 103.928C1388.91 103.928 1393.74 99.1048 1393.74 93.1542C1393.74 87.2036 1388.91 82.38 1382.95 82.38C1376.99 82.38 1372.16 87.2036 1372.16 93.1542ZM1391.64 81.9528C1391.64 82.4508 1391.79 82.9377 1392.07 83.3518C1392.34 83.766 1392.74 84.0889 1393.2 84.2797C1393.66 84.4704 1394.17 84.5205 1394.66 84.4235C1395.14 84.3266 1395.59 84.0869 1395.95 83.7349C1396.3 83.383 1396.54 82.9344 1396.64 82.446C1396.74 81.9576 1396.69 81.4514 1396.49 80.9912C1396.3 80.531 1395.98 80.1377 1395.57 79.8608C1395.15 79.584 1394.66 79.4361 1394.17 79.4359H1394.16C1393.5 79.4363 1392.86 79.7015 1392.38 80.1734C1391.91 80.6453 1391.64 81.2853 1391.64 81.9528ZM1374.46 110.233C1372.41 110.14 1371.3 109.799 1370.56 109.511C1369.57 109.13 1368.87 108.676 1368.14 107.942C1367.4 107.208 1366.95 106.51 1366.57 105.53C1366.28 104.792 1365.94 103.679 1365.84 101.634C1365.74 99.422 1365.72 98.7576 1365.72 93.1544C1365.72 87.5511 1365.74 86.8885 1365.84 84.675C1365.94 82.6293 1366.28 81.5192 1366.57 80.7785C1366.95 79.7989 1367.4 79.0999 1368.14 78.365C1368.87 77.6301 1369.57 77.1752 1370.56 76.7955C1371.3 76.5075 1372.41 76.1667 1374.46 76.0737C1376.67 75.972 1377.34 75.9517 1382.95 75.9517C1388.56 75.9517 1389.22 75.9737 1391.44 76.0737C1393.49 76.1669 1394.6 76.5102 1395.34 76.7955C1396.32 77.1752 1397.02 77.6311 1397.76 78.365C1398.49 79.0989 1398.95 79.7989 1399.33 80.7785C1399.62 81.5171 1399.96 82.6293 1400.05 84.675C1400.16 86.8885 1400.18 87.5511 1400.18 93.1544C1400.18 98.7576 1400.16 99.4202 1400.05 101.634C1399.96 103.679 1399.62 104.791 1399.33 105.53C1398.95 106.51 1398.49 107.209 1397.76 107.942C1397.02 108.675 1396.32 109.13 1395.34 109.511C1394.6 109.8 1393.49 110.14 1391.44 110.233C1389.22 110.335 1388.56 110.355 1382.95 110.355C1377.34 110.355 1376.67 110.335 1374.46 110.233ZM1374.28 72.2989C1372.05 72.4007 1370.52 72.7548 1369.18 73.2735C1367.8 73.8092 1366.63 74.5278 1365.46 75.6937C1364.29 76.8597 1363.57 78.0301 1363.04 79.4106C1362.52 80.7444 1362.16 82.2699 1362.06 84.5036C1361.96 86.7408 1361.93 87.4561 1361.93 93.1542C1361.93 98.8523 1361.96 99.5675 1362.06 101.805C1362.16 104.039 1362.52 105.564 1363.04 106.898C1363.57 108.277 1364.29 109.449 1365.46 110.615C1366.63 111.78 1367.8 112.498 1369.18 113.035C1370.52 113.554 1372.05 113.908 1374.28 114.009C1376.53 114.111 1377.24 114.136 1382.95 114.136C1388.65 114.136 1389.37 114.113 1391.61 114.009C1393.85 113.908 1395.38 113.554 1396.71 113.035C1398.09 112.498 1399.26 111.781 1400.43 110.615C1401.6 109.449 1402.32 108.277 1402.86 106.898C1403.38 105.564 1403.73 104.038 1403.83 101.805C1403.94 99.5659 1403.96 98.8523 1403.96 93.1542C1403.96 87.4561 1403.94 86.7408 1403.83 84.5036C1403.73 82.2697 1403.38 80.7436 1402.86 79.4106C1402.32 78.031 1401.6 76.8615 1400.43 75.6937C1399.27 74.5259 1398.09 73.8092 1396.71 73.2735C1395.38 72.7548 1393.85 72.399 1391.61 72.2989C1389.37 72.1972 1388.66 72.1719 1382.95 72.1719C1377.24 72.1719 1376.53 72.1955 1374.28 72.2989Z" fill="#FF4BA2"/>
<circle cx="279.729" cy="144.558" r="57.9091" fill="#F4F7F8"/>
<path d="M266.282 125.273L264.33 127.224L260.914 149.165L271.162 154.528L272.626 156.478L282.386 153.065L293.123 144.776L293.611 136.975L293.123 125.761L291.659 125.273H266.282Z" fill="white"/>
<path d="M265.095 123.324L257.004 130.818V157.795H266.714V165.289L274.805 157.795H281.278L295.842 144.307V123.324H265.095ZM292.606 142.808L286.133 148.803H279.66L273.996 154.048V148.803H266.714V126.322H292.606V142.808Z" fill="#721DDE"/>
<path d="M287.752 131.568H284.516V140.561H287.752V131.568Z" fill="#721DDE"/>
<path d="M278.85 131.568H275.613V140.561H278.85V131.568Z" fill="#721DDE"/>
<circle cx="500.917" cy="95.3349" r="57.9091" fill="#F4F7F8"/>
<path d="M527.208 81.9878C526.589 79.6468 524.756 77.8 522.424 77.1671C518.207 76.0313 501.289 76.0312 501.289 76.0312C501.289 76.0312 484.379 76.0313 480.154 77.1671C477.831 77.7913 475.998 79.6381 475.369 81.9878C474.242 86.2363 474.242 95.1061 474.242 95.1061C474.242 95.1061 474.242 103.976 475.369 108.224C475.989 110.565 477.822 112.412 480.154 113.045C484.379 114.181 501.289 114.181 501.289 114.181C501.289 114.181 518.207 114.181 522.424 113.045C524.747 112.421 526.58 110.574 527.208 108.224C528.336 103.976 528.336 95.1061 528.336 95.1061C528.336 95.1061 528.336 86.2363 527.208 81.9878Z" fill="#FF3000"/>
<path d="M495.885 103.282L509.937 95.1061L495.885 86.9299V103.282Z" fill="white"/>
<circle cx="1162.2" cy="144.558" r="57.9091" fill="#F4F7F8"/>
<path d="M1180.75 132.217C1179.54 132.766 1178.27 133.148 1176.96 133.354C1177.57 133.244 1178.47 132.089 1178.83 131.621C1179.37 130.916 1179.78 130.111 1180.05 129.247C1180.05 129.183 1180.11 129.091 1180.05 129.045C1180.02 129.028 1179.98 129.018 1179.95 129.018C1179.91 129.018 1179.88 129.028 1179.85 129.045C1178.43 129.852 1176.92 130.468 1175.36 130.879C1175.31 130.896 1175.25 130.898 1175.19 130.883C1175.14 130.869 1175.09 130.839 1175.05 130.796C1174.93 130.644 1174.79 130.5 1174.66 130.365C1174.02 129.764 1173.3 129.273 1172.51 128.908C1171.46 128.452 1170.32 128.254 1169.18 128.33C1168.07 128.404 1166.99 128.716 1166.01 129.247C1165.04 129.807 1164.18 130.568 1163.5 131.484C1162.78 132.427 1162.26 133.521 1161.98 134.692C1161.74 135.807 1161.71 136.959 1161.9 138.084C1161.9 138.277 1161.9 138.304 1161.74 138.277C1155.53 137.314 1150.44 134.995 1146.27 130.017C1146.09 129.797 1145.99 129.797 1145.85 130.017C1144.03 132.914 1144.91 137.498 1147.18 139.762C1147.48 140.064 1147.8 140.358 1148.13 140.633C1147.09 140.555 1146.08 140.259 1145.15 139.762C1144.98 139.643 1144.88 139.707 1144.87 139.927C1144.85 140.232 1144.85 140.539 1144.87 140.844C1145.05 142.305 1145.6 143.69 1146.46 144.856C1147.31 146.022 1148.45 146.928 1149.75 147.481C1150.06 147.623 1150.39 147.731 1150.73 147.802C1149.77 148.001 1148.79 148.032 1147.81 147.893C1147.61 147.847 1147.53 147.967 1147.61 148.177C1148.89 151.844 1151.66 152.963 1153.7 153.586C1153.98 153.632 1154.26 153.632 1154.57 153.705C1154.57 153.705 1154.57 153.705 1154.52 153.76C1153.92 154.915 1151.49 155.695 1150.38 156.098C1148.34 156.867 1146.17 157.161 1144.02 156.96C1143.68 156.905 1143.6 156.914 1143.51 156.96C1143.43 157.005 1143.51 157.106 1143.61 157.198C1144.04 157.5 1144.48 157.766 1144.93 158.023C1146.28 158.797 1147.71 159.412 1149.18 159.856C1156.83 162.075 1165.43 160.443 1171.17 154.439C1175.68 149.727 1177.27 143.227 1177.27 136.718C1177.27 136.471 1177.56 136.324 1177.72 136.196C1178.86 135.26 1179.87 134.154 1180.71 132.914C1180.85 132.729 1180.93 132.494 1180.92 132.254C1180.92 132.116 1180.92 132.144 1180.75 132.217Z" fill="#33CCFF"/>
<circle cx="720.483" cy="144.558" r="57.9091" fill="#F4F7F8"/>
<path d="M729.514 147.087L730.615 139.755H723.838V134.988C723.838 132.983 724.784 131.024 727.809 131.024H730.934V124.78C729.114 124.475 727.276 124.311 725.433 124.287C719.855 124.287 716.214 127.805 716.214 134.163V139.755H710.031V147.087H716.214V164.824H723.838V147.087H729.514Z" fill="#337FFF"/>
<circle cx="57.9091" cy="95.3349" r="57.9091" fill="#F4F7F8"/>
<path fill-rule="evenodd" clip-rule="evenodd" d="M65.1184 90.3812C67.3812 92.0817 70.091 92.9903 72.8672 92.9793V87.1628C72.3214 87.1644 71.7771 87.1026 71.2441 86.9786V91.6124C68.4616 91.6176 65.7479 90.6986 63.4861 88.9853V100.948C63.4793 102.911 62.9701 104.835 62.0125 106.517C61.0549 108.199 59.6846 109.575 58.047 110.501C56.4093 111.426 54.5653 111.865 52.7106 111.772C50.8558 111.68 49.0593 111.058 47.5117 109.973C48.9432 111.504 50.7723 112.552 52.7674 112.983C54.7625 113.415 56.8338 113.211 58.7191 112.397C60.6044 111.583 62.2189 110.196 63.3581 108.412C64.4972 106.627 65.1099 104.526 65.1184 102.373V90.3812ZM67.1267 84.4484C65.976 83.1299 65.27 81.4462 65.1184 79.6595V78.9033H63.5779C63.7683 80.0391 64.1827 81.1197 64.7941 82.0751C65.4055 83.0304 66.2003 83.839 67.1267 84.4484ZM51.0789 105.368C50.5449 104.63 50.2177 103.748 50.1345 102.823C50.0512 101.898 50.2153 100.967 50.608 100.136C51.0008 99.3045 51.6064 98.6064 52.3559 98.121C53.1055 97.6355 53.9689 97.3823 54.8479 97.3901C55.3331 97.39 55.8156 97.4684 56.2784 97.6228V91.6124C55.7374 91.5366 55.1917 91.5042 54.6461 91.5154V96.188C53.5192 95.8115 52.2995 95.8971 51.2296 96.4279C50.1597 96.9587 49.318 97.8958 48.8719 99.0528C48.4258 100.21 48.408 101.502 48.822 102.672C49.2361 103.842 50.0516 104.805 51.1064 105.368H51.0789Z" fill="#EE1D52"/>
<path fill-rule="evenodd" clip-rule="evenodd" d="M63.4826 88.9465C65.7444 90.6599 68.4581 91.5788 71.2406 91.5736V86.9398C69.6553 86.5854 68.2151 85.714 67.1232 84.4484C66.1968 83.839 65.402 83.0304 64.7906 82.0751C64.1792 81.1197 63.7648 80.0391 63.5744 78.9033H59.5211V102.373C59.5174 103.412 59.2059 104.423 58.6306 105.265C58.0553 106.108 57.2449 106.738 56.3132 107.069C55.3816 107.399 54.3754 107.413 53.436 107.108C52.4966 106.803 51.6711 106.195 51.0754 105.368C50.1314 104.865 49.3753 104.04 48.9293 103.026C48.4833 102.013 48.3732 100.87 48.6169 99.7822C48.8607 98.6945 49.4439 97.7253 50.2726 97.031C51.1013 96.3367 52.1271 95.9578 53.1846 95.9554C53.6697 95.957 54.1519 96.0354 54.6151 96.188V91.5154C52.6138 91.5662 50.6701 92.2337 49.0225 93.4358C47.375 94.6379 46.0953 96.3224 45.3406 98.2825C44.5858 100.243 44.3889 102.393 44.774 104.47C45.1591 106.547 46.1094 108.459 47.5082 109.973C49.0561 111.066 50.8554 111.694 52.7144 111.791C54.5733 111.888 56.4223 111.45 58.0644 110.524C59.7066 109.597 61.0803 108.218 62.0393 106.531C62.9983 104.845 63.5066 102.915 63.5102 100.948L63.4826 88.9465Z" fill="black"/>
<path fill-rule="evenodd" clip-rule="evenodd" d="M71.2422 86.939V85.6884C69.7863 85.695 68.3585 85.2647 67.1248 84.4476C68.2139 85.7169 69.6553 86.589 71.2422 86.939ZM63.5759 78.9025C63.5759 78.6795 63.5117 78.4469 63.4842 78.2239V77.4678H57.8904V100.947C57.8855 102.262 57.3875 103.521 56.5055 104.448C55.6235 105.375 54.4297 105.894 53.1861 105.891C52.4538 105.895 51.7311 105.716 51.077 105.368C51.6727 106.194 52.4981 106.802 53.4375 107.107C54.377 107.412 55.3831 107.398 56.3148 107.068C57.2464 106.737 58.0568 106.107 58.6322 105.265C59.2075 104.422 59.5189 103.411 59.5227 102.372V78.9025H63.5759ZM54.6166 91.5049V90.1768C52.3148 89.8463 49.975 90.3496 47.9784 91.6048C45.9818 92.8601 44.4463 94.7932 43.622 97.0891C42.7978 99.385 42.7334 101.908 43.4394 104.248C44.1454 106.587 45.5801 108.605 47.5098 109.972C46.1215 108.455 45.1813 106.543 44.8041 104.47C44.4269 102.397 44.629 100.253 45.3857 98.2993C46.1424 96.3457 47.4209 94.6675 49.0651 93.4695C50.7093 92.2715 52.6479 91.6057 54.6442 91.5534L54.6166 91.5049Z" fill="#69C9D0"/>
<circle cx="941.343" cy="95.3447" r="57.9091" fill="#F4F7F8"/>
<path d="M936.419 77.8582L942.265 76.5049H944.514L950.809 79.6626L953.957 86.4292V91.3913L958.004 90.9402V92.2935V94.549L955.306 95.4512L954.406 96.8046L956.655 101.316L962.5 104.473L961.151 106.278L957.104 107.631L956.205 109.435L955.306 110.789H950.359L948.111 111.691L943.165 114.398L940.017 113.495L936.419 111.691L933.721 110.789H930.124L928.775 109.887L927.426 107.631L925.178 107.18L923.379 105.827V104.473L925.627 103.12L929.674 99.9623L930.574 96.8046L926.976 94.549L927.426 92.2935L928.775 90.9402L931.473 91.3913L932.822 83.2714L936.419 77.8582Z" fill="white"/>
<path d="M943.1 77.8057C948.629 77.8076 953.235 82.4255 953.242 87.9857C953.243 89.288 953.283 90.4873 953.357 91.592C953.402 92.2736 953.967 92.7787 954.615 92.7787C954.71 92.7787 954.808 92.7678 954.905 92.7449L956.637 92.3375C956.711 92.3201 956.785 92.3118 956.858 92.3118C957.298 92.3118 957.703 92.6134 957.802 93.06C957.942 93.6911 957.589 94.3288 956.98 94.5432L954.35 95.608C953.686 95.8768 953.33 96.6015 953.517 97.2948C955.626 105.118 961.518 104.304 961.518 105.324C961.518 106.604 957.077 106.784 956.676 107.187C956.275 107.589 956.659 109.543 955.762 109.921C955.593 109.993 955.353 110.017 955.06 110.017C954.385 110.017 953.43 109.885 952.424 109.885C951.55 109.885 950.639 109.985 949.837 110.356C947.71 111.342 945.66 113.183 943.118 113.183C940.577 113.183 938.526 111.342 936.4 110.356C935.598 109.985 934.686 109.885 933.813 109.885C932.807 109.885 931.852 110.017 931.177 110.017C930.884 110.017 930.644 109.993 930.475 109.921C929.578 109.543 929.962 107.589 929.561 107.187C929.16 106.784 924.719 106.604 924.719 105.324C924.719 104.304 930.61 105.118 932.72 97.2947C932.907 96.6015 932.55 95.8768 931.886 95.6079L929.257 94.5431C928.647 94.3287 928.295 93.691 928.435 93.0599C928.533 92.6132 928.939 92.3117 929.378 92.3118C929.451 92.3118 929.526 92.32 929.599 92.3374L931.331 92.7448C931.429 92.7677 931.526 92.7787 931.622 92.7787C932.27 92.7787 932.835 92.2735 932.88 91.5919C932.953 90.4872 932.993 89.2879 932.995 87.9856C933.002 82.4255 937.571 77.8077 943.1 77.8057ZM943.101 75.5996H943.099C941.449 75.6001 939.841 75.9328 938.321 76.5885C936.862 77.2178 935.548 78.115 934.417 79.2554C933.288 80.3943 932.399 81.7165 931.776 83.1853C931.127 84.7125 930.798 86.3267 930.796 87.983C930.795 88.7961 930.778 89.5853 930.746 90.3411L930.101 90.1895C929.865 90.1339 929.622 90.1056 929.379 90.1055C928.677 90.1054 927.985 90.3433 927.431 90.7751C926.852 91.2257 926.446 91.8673 926.288 92.5819C925.911 94.2826 926.848 95.9996 928.47 96.6034L930.399 97.3848C929.122 101.319 926.766 102.073 925.179 102.581C924.758 102.716 924.394 102.832 924.048 103.005C922.668 103.691 922.52 104.855 922.52 105.324C922.52 106.221 922.943 107.04 923.712 107.629C924.094 107.922 924.568 108.165 925.161 108.369C925.969 108.648 926.905 108.825 927.666 108.967C927.702 109.25 927.756 109.554 927.847 109.86C928.225 111.132 929.021 111.701 929.622 111.955C930.193 112.196 930.783 112.223 931.177 112.223C931.562 112.223 931.969 112.193 932.4 112.161C932.863 112.127 933.341 112.091 933.813 112.091C934.545 112.091 935.089 112.179 935.478 112.359C936.011 112.606 936.577 112.939 937.176 113.292C938.844 114.275 940.734 115.388 943.118 115.388C945.503 115.388 947.393 114.275 949.061 113.292C949.66 112.939 950.226 112.606 950.759 112.359C951.148 112.179 951.692 112.091 952.424 112.091C952.895 112.091 953.374 112.127 953.836 112.161C954.268 112.193 954.675 112.223 955.06 112.223C955.454 112.223 956.044 112.196 956.614 111.955C957.216 111.701 958.012 111.132 958.389 109.86C958.48 109.554 958.534 109.25 958.571 108.967C959.332 108.825 960.268 108.648 961.076 108.369C961.668 108.165 962.142 107.922 962.525 107.629C963.294 107.04 963.717 106.221 963.717 105.324C963.717 104.855 963.568 103.691 962.188 103.005C961.842 102.832 961.479 102.716 961.058 102.581C959.471 102.073 957.115 101.319 955.837 97.3849L957.767 96.6035C959.389 95.9997 960.325 94.2826 959.949 92.5819C959.791 91.8673 959.385 91.2257 958.806 90.7751C958.251 90.3434 957.559 90.1055 956.858 90.1055C956.615 90.1055 956.372 90.1338 956.136 90.1894L955.491 90.341C955.459 89.5853 955.442 88.7962 955.441 87.9829C955.439 86.3253 955.107 84.7095 954.453 83.1802C953.826 81.7122 952.932 80.3904 951.797 79.2514C950.662 78.1125 949.345 77.2162 947.883 76.5874C946.36 75.9326 944.751 75.6002 943.101 75.5996Z" fill="#050505"/>
<line x1="127.615" y1="110.328" x2="210.083" y2="149.852" stroke="#9E9E9E" stroke-dasharray="6 6"/>
<line x1="347.242" y1="155.73" x2="430.124" y2="117.082" stroke="#9E9E9E" stroke-dasharray="6 6"/>
<line x1="793.144" y1="149.941" x2="876.026" y2="111.293" stroke="#9E9E9E" stroke-dasharray="6 6"/>
<line x1="1234.22" y1="148.975" x2="1317.1" y2="110.326" stroke="#9E9E9E" stroke-dasharray="6 6"/>
<line x1="569.658" y1="110.328" x2="652.126" y2="149.852" stroke="#9E9E9E" stroke-dasharray="6 6"/>
<line x1="1009.76" y1="110.328" x2="1092.23" y2="149.852" stroke="#9E9E9E" stroke-dasharray="6 6"/>
</svg>
