<svg width="30" height="30" viewBox="0 0 30 30" fill="none" xmlns="http://www.w3.org/2000/svg">
<circle cx="15" cy="15" r="15" fill="#0F8AFF"/>
<path d="M19.5573 20.4751H10.442C10.0887 20.4761 9.74713 20.3485 9.48099 20.1161C9.21485 19.8838 9.04234 19.5625 8.99566 19.2123L8.00809 11.9235C7.98357 11.7446 8.0151 11.5624 8.09834 11.4021C8.18159 11.2418 8.31245 11.1113 8.47294 11.0284C8.63343 10.9455 8.81566 10.9144 8.99456 10.9393C9.17346 10.9642 9.34024 11.044 9.47196 11.1676L11.1019 12.6751C11.188 12.7584 11.2904 12.8231 11.4026 12.8651C11.5148 12.9072 11.6344 12.9257 11.7541 12.9195C11.8738 12.9134 11.9909 12.8827 12.0982 12.8294C12.2055 12.7761 12.3007 12.7013 12.3778 12.6096L14.3267 10.3111C14.4088 10.2137 14.5111 10.1353 14.6266 10.0816C14.7421 10.0278 14.8679 10 14.9953 10C15.1227 10 15.2485 10.0278 15.364 10.0816C15.4795 10.1353 15.5819 10.2137 15.6639 10.3111L17.6215 12.6096C17.698 12.6998 17.792 12.7736 17.8978 12.8265C18.0036 12.8793 18.119 12.9102 18.2371 12.9171C18.3551 12.9241 18.4734 12.907 18.5847 12.8669C18.6959 12.8268 18.7979 12.7645 18.8844 12.6839L20.5143 11.1763C20.6447 11.0485 20.8119 10.9647 20.9924 10.9368C21.1729 10.9089 21.3576 10.9382 21.5206 11.0206C21.6835 11.1031 21.8166 11.2345 21.901 11.3965C21.9854 11.5584 22.017 11.7427 21.9913 11.9235L21.0037 19.2079C20.958 19.5589 20.7859 19.8812 20.5197 20.1145C20.2534 20.3478 19.9113 20.476 19.5573 20.4751Z" fill="white"/>
</svg>
