<svg width="20" height="20" viewBox="0 0 20 20" fill="none" xmlns="http://www.w3.org/2000/svg">
<path d="M16.3621 6.66461C16.373 6.81044 16.373 6.95544 16.373 7.10044C16.373 11.5379 12.9955 16.6513 6.82297 16.6513C4.9213 16.6513 3.15464 16.1004 1.66797 15.1438C1.93797 15.1746 2.19797 15.1854 2.4788 15.1854C3.98963 15.1891 5.45767 14.6839 6.6463 13.7513C5.94582 13.7386 5.26678 13.5075 4.704 13.0902C4.14122 12.673 3.72279 12.0904 3.50714 11.4238C3.71464 11.4546 3.92297 11.4754 4.1413 11.4754C4.44214 11.4754 4.74464 11.4338 5.02547 11.3613C4.26527 11.2078 3.5817 10.7957 3.09098 10.1952C2.60027 9.59463 2.33271 8.84265 2.3338 8.06711V8.02544C2.7813 8.27461 3.30047 8.43044 3.85047 8.45128C3.38971 8.1451 3.0119 7.72963 2.75075 7.24194C2.4896 6.75424 2.35323 6.20949 2.3538 5.65628C2.3538 5.03294 2.51964 4.46128 2.81047 3.96294C3.65392 5.00046 4.70589 5.84924 5.89825 6.45432C7.09061 7.05941 8.39677 7.40729 9.73213 7.47544C9.68047 7.22544 9.6488 6.96628 9.6488 6.70628C9.64858 6.26541 9.73526 5.82882 9.90387 5.42148C10.0725 5.01413 10.3197 4.64401 10.6315 4.33227C10.9432 4.02053 11.3133 3.77329 11.7207 3.60467C12.128 3.43606 12.5646 3.34939 13.0055 3.34961C13.9721 3.34961 14.8446 3.75461 15.458 4.40961C16.2094 4.26429 16.9301 3.98996 17.588 3.59878C17.3375 4.37446 16.8128 5.0322 16.1121 5.44878C16.7786 5.37276 17.43 5.19749 18.0446 4.92878C17.5856 5.59803 17.0167 6.1849 16.3621 6.66461Z" fill="#6E7CA0"/>
</svg>
