<svg width="33" height="34" viewBox="0 0 33 34" fill="none" xmlns="http://www.w3.org/2000/svg">
<circle cx="16.4033" cy="16.9992" r="16.124" fill="url(#paint0_linear_1413_6527)"/>
<path fill-rule="evenodd" clip-rule="evenodd" d="M12.5834 7.057C13.5965 7.01036 13.9195 7 16.5 7C19.0805 7 19.4035 7.01123 20.4157 7.057C21.4279 7.10277 22.1188 7.26427 22.7234 7.49832C23.3564 7.73755 23.9307 8.1115 24.4057 8.59514C24.8894 9.06927 25.2625 9.64273 25.5008 10.2766C25.7357 10.8812 25.8964 11.5721 25.943 12.5825C25.9896 13.5973 26 13.9203 26 16.5C26 19.0805 25.9888 19.4035 25.943 20.4166C25.8972 21.427 25.7357 22.118 25.5008 22.7225C25.2624 23.3565 24.8887 23.9309 24.4057 24.4057C23.9307 24.8894 23.3564 25.2625 22.7234 25.5008C22.1188 25.7357 21.4279 25.8964 20.4175 25.943C19.4035 25.9896 19.0805 26 16.5 26C13.9195 26 13.5965 25.9888 12.5834 25.943C11.573 25.8972 10.882 25.7357 10.2775 25.5008C9.64352 25.2624 9.06912 24.8887 8.59427 24.4057C8.11096 23.9313 7.73695 23.3572 7.49832 22.7234C7.26427 22.1188 7.10364 21.4279 7.057 20.4175C7.01036 19.4027 7 19.0797 7 16.5C7 13.9195 7.01123 13.5965 7.057 12.5843C7.10277 11.5721 7.26427 10.8812 7.49832 10.2766C7.73731 9.6428 8.1116 9.06868 8.59514 8.59427C9.06931 8.11107 9.64314 7.73706 10.2766 7.49832C10.8812 7.26427 11.573 7.10364 12.5834 7.057ZM20.3389 8.767C19.337 8.72123 19.0365 8.71173 16.5 8.71173C13.9635 8.71173 13.663 8.72123 12.6611 8.767C11.7345 8.80932 11.2318 8.96391 10.8967 9.09432C10.4537 9.26705 10.1367 9.47173 9.80423 9.80423C9.48904 10.1109 9.24647 10.4842 9.09432 10.8967C8.96391 11.2318 8.80932 11.7345 8.767 12.6611C8.72123 13.663 8.71173 13.9635 8.71173 16.5C8.71173 19.0365 8.72123 19.337 8.767 20.3389C8.80932 21.2655 8.96391 21.7682 9.09432 22.1033C9.24632 22.5152 9.489 22.8892 9.80423 23.1958C10.1108 23.511 10.4848 23.7537 10.8967 23.9057C11.2318 24.0361 11.7345 24.1907 12.6611 24.233C13.663 24.2788 13.9626 24.2883 16.5 24.2883C19.0374 24.2883 19.337 24.2788 20.3389 24.233C21.2655 24.1907 21.7682 24.0361 22.1033 23.9057C22.5463 23.733 22.8633 23.5283 23.1958 23.1958C23.511 22.8892 23.7537 22.5152 23.9057 22.1033C24.0361 21.7682 24.1907 21.2655 24.233 20.3389C24.2788 19.337 24.2883 19.0365 24.2883 16.5C24.2883 13.9635 24.2788 13.663 24.233 12.6611C24.1907 11.7345 24.0361 11.2318 23.9057 10.8967C23.733 10.4537 23.5283 10.1367 23.1958 9.80423C22.8891 9.48906 22.5158 9.2465 22.1033 9.09432C21.7682 8.96391 21.2655 8.80932 20.3389 8.767ZM15.2866 19.4286C15.9643 19.7107 16.7188 19.7488 17.4214 19.5363C18.1241 19.3239 18.7311 18.8741 19.1389 18.2638C19.5468 17.6534 19.73 16.9205 19.6575 16.19C19.5849 15.4596 19.2611 14.777 18.7411 14.2589C18.4097 13.9276 18.009 13.674 17.5677 13.5163C17.1265 13.3585 16.6558 13.3005 16.1895 13.3465C15.7232 13.3925 15.2729 13.5413 14.871 13.7822C14.4691 14.0232 14.1256 14.3502 13.8653 14.7398C13.605 15.1294 13.4343 15.5718 13.3654 16.0353C13.2966 16.4988 13.3314 16.9718 13.4674 17.4202C13.6033 17.8686 13.837 18.2813 14.1515 18.6286C14.4661 18.9759 14.8538 19.2491 15.2866 19.4286ZM13.0472 13.0472C13.5006 12.5938 14.0389 12.2341 14.6313 11.9887C15.2238 11.7433 15.8588 11.617 16.5 11.617C17.1412 11.617 17.7762 11.7433 18.3687 11.9887C18.9611 12.2341 19.4994 12.5938 19.9528 13.0472C20.4062 13.5006 20.7659 14.0389 21.0113 14.6313C21.2567 15.2238 21.383 15.8588 21.383 16.5C21.383 17.1412 21.2567 17.7762 21.0113 18.3687C20.7659 18.9611 20.4062 19.4994 19.9528 19.9528C19.0371 20.8686 17.7951 21.383 16.5 21.383C15.2049 21.383 13.9629 20.8686 13.0472 19.9528C12.1314 19.0371 11.617 17.7951 11.617 16.5C11.617 15.2049 12.1314 13.9629 13.0472 13.0472ZM22.466 12.3442C22.5784 12.2382 22.6683 12.1107 22.7305 11.9693C22.7928 11.828 22.826 11.6755 22.8282 11.5211C22.8305 11.3666 22.8017 11.2133 22.7436 11.0702C22.6856 10.927 22.5994 10.797 22.4901 10.6878C22.3809 10.5785 22.2509 10.4923 22.1078 10.4343C21.9646 10.3762 21.8113 10.3474 21.6568 10.3497C21.5024 10.3519 21.35 10.3852 21.2086 10.4474C21.0672 10.5096 20.9397 10.5995 20.8337 10.7119C20.6276 10.9304 20.5147 11.2207 20.5191 11.5211C20.5235 11.8215 20.6448 12.1083 20.8572 12.3207C21.0696 12.5332 21.3565 12.6544 21.6568 12.6588C21.9572 12.6632 22.2475 12.5503 22.466 12.3442Z" fill="white"/>
<defs>
<linearGradient id="paint0_linear_1413_6527" x1="-1.77599" y1="34.9104" x2="36.2022" y2="-2.50928" gradientUnits="userSpaceOnUse">
<stop stop-color="#FED576"/>
<stop offset="0.26" stop-color="#F47133"/>
<stop offset="0.61" stop-color="#BC3081"/>
<stop offset="1" stop-color="#4C63D2"/>
</linearGradient>
</defs>
</svg>
