<svg width="33" height="34" viewBox="0 0 33 34" fill="none" xmlns="http://www.w3.org/2000/svg">
<circle cx="16.4677" cy="16.9992" r="16.124" fill="black"/>
<path d="M23.105 12.9777C22.2472 12.7918 21.4712 12.3429 20.8884 11.6953C20.3055 11.0478 19.9458 10.2349 19.8608 9.3734V9.00024H16.8919V20.5934C16.8925 21.1078 16.7289 21.6093 16.4242 22.027C16.1195 22.4447 15.6891 22.7572 15.1942 22.9205C14.6992 23.0837 14.1646 23.0893 13.6662 22.9365C13.1678 22.7837 12.7308 22.4802 12.4171 22.069C12.1361 21.7051 11.9641 21.2709 11.9204 20.8156C11.8767 20.3603 11.9632 19.902 12.17 19.4926C12.3768 19.0832 12.6957 18.739 13.0907 18.4989C13.4857 18.2588 13.9409 18.1324 14.405 18.134C14.6616 18.1325 14.917 18.1697 15.1623 18.2442V15.276C14.8769 15.2411 14.5892 15.227 14.3017 15.2336C13.2427 15.2615 12.2148 15.5931 11.3441 16.1879C10.4734 16.7827 9.79756 17.6148 9.39938 18.5823C9.0012 19.5498 8.89794 20.6108 9.10227 21.6353C9.30659 22.6598 9.80963 23.6033 10.5498 24.3503C11.3083 25.1104 12.279 25.631 13.3385 25.8462C14.398 26.0613 15.4985 25.9612 16.5001 25.5585C17.5017 25.1558 18.3593 24.4688 18.9638 23.5847C19.5683 22.7007 19.8925 21.6595 19.8952 20.5934V14.6569C21.0926 15.4998 22.5285 15.9507 24 15.9459V13.0625C23.7109 13.0637 23.4226 13.0353 23.1395 12.9777H23.105Z" fill="white"/>
</svg>
