<svg width="20" height="20" viewBox="0 0 20 20" fill="none" xmlns="http://www.w3.org/2000/svg">
<path d="M16 9.0332V6.66654C14.8917 6.66654 14.0458 6.3707 13.5 5.7957C12.9398 5.13947 12.6259 4.30843 12.6125 3.4457V3.27487L10.375 3.2207V12.8332C10.2982 13.2526 10.0947 13.6384 9.79173 13.9384C9.48879 14.2384 9.1011 14.4383 8.68098 14.511C8.26086 14.5837 7.82854 14.5257 7.4424 14.345C7.05625 14.1642 6.73487 13.8693 6.52163 13.5001C6.3084 13.1309 6.21358 12.7051 6.24997 12.2803C6.28637 11.8555 6.45223 11.4521 6.72517 11.1245C6.9981 10.797 7.36497 10.5611 7.77624 10.4486C8.1875 10.3361 8.62337 10.3526 9.025 10.4957V8.20404C8.79083 8.16567 8.55396 8.14616 8.31667 8.1457C7.46291 8.1457 6.62833 8.39887 5.91846 8.87319C5.20858 9.34751 4.65531 10.0217 4.32859 10.8105C4.00187 11.5992 3.91639 12.4672 4.08295 13.3045C4.24951 14.1419 4.66063 14.911 5.26432 15.5147C5.86802 16.1184 6.63718 16.5295 7.47453 16.6961C8.31188 16.8627 9.17982 16.7772 9.96859 16.4505C10.7574 16.1237 11.4315 15.5705 11.9058 14.8606C12.3802 14.1507 12.6333 13.3161 12.6333 12.4624C12.6329 12.2855 12.6217 12.1088 12.6 11.9332V8.1207C13.6174 8.7561 14.8012 9.07379 16 9.0332Z" fill="#6E7CA0"/>
</svg>
