<svg width="24" height="24" viewBox="0 0 24 24" fill="none" xmlns="http://www.w3.org/2000/svg">
<path d="M19.2008 10.8402V8.00023C17.8708 8.00023 16.8558 7.64523 16.2008 6.95523C15.5285 6.16776 15.1519 5.17051 15.1358 4.13523V3.93023L12.4508 3.86523V15.4002C12.3587 15.9035 12.1144 16.3664 11.7509 16.7265C11.3873 17.0865 10.9221 17.3263 10.418 17.4136C9.91381 17.5008 9.39503 17.4313 8.93166 17.2144C8.46828 16.9974 8.08262 16.6436 7.82674 16.2005C7.57086 15.7574 7.45707 15.2465 7.50075 14.7368C7.54443 14.227 7.74346 13.7429 8.07098 13.3498C8.3985 12.9568 8.83874 12.6737 9.33226 12.5387C9.82579 12.4038 10.3488 12.4235 10.8308 12.5952V9.84523C10.5498 9.79919 10.2655 9.77578 9.98078 9.77523C8.95628 9.77523 7.95478 10.079 7.10293 10.6482C6.25108 11.2174 5.58715 12.0264 5.19509 12.9729C4.80303 13.9195 4.70044 14.961 4.90032 15.9658C5.10019 16.9706 5.59353 17.8936 6.31797 18.618C7.04241 19.3425 7.96539 19.8358 8.97022 20.0357C9.97504 20.2356 11.0166 20.133 11.9631 19.7409C12.9096 19.3489 13.7186 18.6849 14.2878 17.8331C14.857 16.9812 15.1608 15.9797 15.1608 14.9552C15.1602 14.743 15.1469 14.5309 15.1208 14.3202V9.74523C16.3417 10.5077 17.7622 10.8889 19.2008 10.8402Z" fill="white"/>
</svg>
