<svg width="33" height="34" viewBox="0 0 33 34" fill="none" xmlns="http://www.w3.org/2000/svg">
<circle cx="16.4384" cy="16.9992" r="16.124" fill="#1D9BF0"/>
<path d="M26 11.7097C25.3013 11.9987 24.5507 12.1939 23.7616 12.2821C24.5758 11.8275 25.1849 11.112 25.4753 10.269C24.7104 10.693 23.8732 10.9915 23.0001 11.1514C22.413 10.5664 21.6354 10.1787 20.7879 10.0484C19.9405 9.91812 19.0707 10.0526 18.3135 10.4309C17.5563 10.8092 16.9542 11.4102 16.6005 12.1406C16.2469 12.8709 16.1616 13.6898 16.3577 14.4701C14.8078 14.3975 13.2915 14.0216 11.9073 13.3667C10.523 12.7118 9.30186 11.7926 8.32295 10.6688C7.98824 11.2076 7.79578 11.8323 7.79578 12.4976C7.79541 13.0966 7.95346 13.6863 8.25591 14.2146C8.55836 14.7428 8.99586 15.1933 9.5296 15.5259C8.91061 15.5075 8.30528 15.3514 7.76398 15.0706V15.1175C7.76392 15.9575 8.07529 16.7717 8.64527 17.4218C9.21524 18.072 10.0087 18.5181 10.891 18.6845C10.3168 18.8295 9.71481 18.8509 9.13045 18.747C9.37939 19.4698 9.86431 20.1018 10.5173 20.5546C11.1703 21.0075 11.9587 21.2584 12.7721 21.2723C11.3913 22.2839 9.68598 22.8326 7.9305 22.8302C7.61954 22.8303 7.30884 22.8133 7 22.7794C8.78191 23.8486 10.8562 24.416 12.9746 24.4138C20.1459 24.4138 24.0662 18.8711 24.0662 14.0641C24.0662 13.9079 24.062 13.7502 24.0545 13.594C24.817 13.0794 25.4753 12.4421 25.9983 11.7121L26 11.7097Z" fill="white"/>
</svg>
