<svg width="57" height="57" viewBox="0 0 57 57" fill="none" xmlns="http://www.w3.org/2000/svg">
<path d="M28.4979 38.6032C22.9212 38.6032 18.3945 34.0765 18.3945 28.4998C18.3945 22.9232 22.9212 18.3965 28.4979 18.3965C34.0745 18.3965 38.6012 22.9232 38.6012 28.4998C38.6012 34.0765 34.0745 38.6032 28.4979 38.6032ZM28.4979 21.8965C24.8579 21.8965 21.8945 24.8598 21.8945 28.4998C21.8945 32.1398 24.8579 35.1032 28.4979 35.1032C32.1379 35.1032 35.1012 32.1398 35.1012 28.4998C35.1012 24.8598 32.1379 21.8965 28.4979 21.8965Z" fill="#0F8AFF"/>
<path d="M28.4956 49.5465C19.7223 49.5465 11.439 44.4131 5.74563 35.4998C3.27229 31.6498 3.27229 25.3731 5.74563 21.4998C11.4623 12.5865 19.7456 7.45312 28.4956 7.45312C37.2456 7.45312 45.529 12.5865 51.2223 21.4998C53.6956 25.3498 53.6956 31.6265 51.2223 35.4998C45.529 44.4131 37.2456 49.5465 28.4956 49.5465ZM28.4956 10.9531C20.959 10.9531 13.749 15.4798 8.70896 23.3898C6.95896 26.1198 6.95896 30.8798 8.70896 33.6098C13.749 41.5198 20.959 46.0465 28.4956 46.0465C36.0323 46.0465 43.2423 41.5198 48.2823 33.6098C50.0323 30.8798 50.0323 26.1198 48.2823 23.3898C43.2423 15.4798 36.0323 10.9531 28.4956 10.9531Z" fill="#292D32"/>
</svg>
