<svg width="20" height="20" viewBox="0 0 20 20" fill="none" xmlns="http://www.w3.org/2000/svg">
<path d="M18.2672 8.2782C18.3045 7.19867 18.0684 6.12722 17.5809 5.16333C17.2501 4.76782 16.791 4.50091 16.2836 4.40912C14.185 4.2187 12.0778 4.14066 9.9709 4.17532C7.87167 4.13908 5.77201 4.21461 3.68081 4.40158C3.26737 4.47678 2.88476 4.67071 2.57967 4.95969C1.90088 5.58568 1.82546 6.65666 1.75004 7.56171C1.64061 9.18896 1.64061 10.8217 1.75004 12.449C1.77186 12.9584 1.8477 13.464 1.9763 13.9574C2.06724 14.3383 2.25123 14.6907 2.51179 14.9831C2.81895 15.2874 3.21047 15.4924 3.63556 15.5714C5.26156 15.7721 6.89993 15.8553 8.53791 15.8203C11.1776 15.858 13.493 15.8203 16.2308 15.6091C16.6663 15.5349 17.0689 15.3297 17.3848 15.0208C17.5959 14.8096 17.7536 14.551 17.8448 14.2666C18.1145 13.439 18.247 12.5727 18.237 11.7023C18.2672 11.2799 18.2672 8.73073 18.2672 8.2782ZM8.26639 12.1548V7.48629L12.7313 9.83187C11.4793 10.5257 9.8276 11.3101 8.26639 12.1548Z" fill="#6E7CA0"/>
</svg>
