<svg width="33" height="34" viewBox="0 0 33 34" fill="none" xmlns="http://www.w3.org/2000/svg">
<circle cx="16.499" cy="16.9992" r="16.124" fill="#FF0000"/>
<path d="M26.1749 16.9379C26.1749 16.8899 26.1749 16.8353 26.1728 16.772C26.1706 16.5951 26.1663 16.3964 26.162 16.1846C26.1447 15.5754 26.1145 14.9683 26.067 14.3962C26.0022 13.6079 25.9072 12.9507 25.7776 12.4572C25.6409 11.9422 25.3729 11.4725 25.0004 11.095C24.6278 10.7176 24.1639 10.4456 23.6549 10.3063C23.0437 10.1404 21.8474 10.0377 20.163 9.97442C19.3618 9.94385 18.5045 9.92419 17.6472 9.91328C17.3471 9.90891 17.0685 9.90672 16.818 9.90454H16.1831C15.9326 9.90672 15.654 9.90891 15.3539 9.91328C14.4966 9.92419 13.6393 9.94385 12.8381 9.97442C11.1537 10.0399 9.95523 10.1426 9.34626 10.3063C8.83706 10.4453 8.37293 10.7171 8.00037 11.0946C7.6278 11.4721 7.3599 11.942 7.22351 12.4572C7.09179 12.9507 6.99893 13.6079 6.93414 14.3962C6.88664 14.9683 6.8564 15.5754 6.83913 16.1846C6.83265 16.3964 6.83049 16.5951 6.82833 16.772C6.82833 16.8353 6.82617 16.8899 6.82617 16.9379V17.0602C6.82617 17.1083 6.82617 17.1629 6.82833 17.2262C6.83049 17.4031 6.83481 17.6018 6.83913 17.8136C6.8564 18.4228 6.88664 19.0298 6.93414 19.602C6.99893 20.3902 7.09395 21.0475 7.22351 21.541C7.49992 22.5869 8.31188 23.4124 9.34626 23.6919C9.95523 23.8578 11.1537 23.9604 12.8381 24.0238C13.6393 24.0543 14.4966 24.074 15.3539 24.0849C15.654 24.0893 15.9326 24.0915 16.1831 24.0936H16.818C17.0685 24.0915 17.3471 24.0893 17.6472 24.0849C18.5045 24.074 19.3618 24.0543 20.163 24.0238C21.8474 23.9583 23.0459 23.8556 23.6549 23.6919C24.6892 23.4124 25.5012 22.5891 25.7776 21.541C25.9093 21.0475 26.0022 20.3902 26.067 19.602C26.1145 19.0298 26.1447 18.4228 26.162 17.8136C26.1685 17.6018 26.1706 17.4031 26.1728 17.2262C26.1728 17.1629 26.1749 17.1083 26.1749 17.0602V16.9379ZM24.6201 17.0515C24.6201 17.0974 24.6201 17.1476 24.618 17.2065C24.6158 17.3769 24.6115 17.5646 24.6072 17.7677C24.5921 18.3486 24.5618 18.9294 24.5165 19.4688C24.4582 20.1719 24.3761 20.7484 24.2746 21.1348C24.1407 21.6393 23.7477 22.0389 23.251 22.1721C22.7975 22.2943 21.6552 22.3926 20.1025 22.4516C19.3165 22.4821 18.47 22.5018 17.6256 22.5127C17.3298 22.5171 17.0555 22.5193 16.8094 22.5193H16.1918L15.3755 22.5127C14.5311 22.5018 13.6868 22.4821 12.8986 22.4516C11.3459 22.3904 10.2014 22.2943 9.75008 22.1721C9.25341 22.0367 8.86038 21.6393 8.7265 21.1348C8.625 20.7484 8.54294 20.1719 8.48464 19.4688C8.43929 18.9294 8.41122 18.3486 8.39394 17.7677C8.38746 17.5646 8.3853 17.3747 8.38314 17.2065C8.38314 17.1476 8.38098 17.0952 8.38098 17.0515V16.9467C8.38098 16.9008 8.38098 16.8506 8.38314 16.7916C8.3853 16.6213 8.38962 16.4335 8.39394 16.2305C8.40906 15.6496 8.43929 15.0688 8.48464 14.5294C8.54294 13.8263 8.625 13.2498 8.7265 12.8633C8.86038 12.3589 9.25341 11.9593 9.75008 11.8261C10.2036 11.7038 11.3459 11.6056 12.8986 11.5466C13.6846 11.516 14.5311 11.4964 15.3755 11.4855C15.6713 11.4811 15.9456 11.4789 16.1918 11.4789H16.8094L17.6256 11.4855C18.47 11.4964 19.3143 11.516 20.1025 11.5466C21.6552 11.6078 22.7997 11.7038 23.251 11.8261C23.7477 11.9615 24.1407 12.3589 24.2746 12.8633C24.3761 13.2498 24.4582 13.8263 24.5165 14.5294C24.5618 15.0688 24.5899 15.6496 24.6072 16.2305C24.6137 16.4335 24.6158 16.6235 24.618 16.7916C24.618 16.8506 24.6201 16.903 24.6201 16.9467V17.0515ZM14.5786 19.9251L19.5886 16.9773L14.5786 14.0731V19.9251Z" fill="white"/>
</svg>
