<svg width="36" height="36" viewBox="0 0 36 36" fill="none" xmlns="http://www.w3.org/2000/svg">
<g clip-path="url(#clip0_2343_6745)">
<path d="M17.55 0.182813C17.4023 0.330469 17.3672 0.435938 17.3672 0.703125C17.3672 0.970313 17.4023 1.07578 17.55 1.22344C17.6977 1.37109 17.8031 1.40625 18.0703 1.40625C18.3375 1.40625 18.443 1.37109 18.5906 1.22344C18.7383 1.07578 18.7734 0.970313 18.7734 0.703125C18.7734 0.435938 18.7383 0.330469 18.5906 0.182813C18.443 0.0351562 18.3375 0 18.0703 0C17.8031 0 17.6977 0.0351562 17.55 0.182813Z" fill="#0083FF"/>
<path d="M13.9008 0.62542C11.8266 1.30745 9.92109 2.50277 8.43047 4.05667C6.6375 5.91995 5.43516 8.23323 4.90078 10.8559C4.76719 11.5379 4.74609 11.8543 4.74609 13.359C4.74609 14.8637 4.76719 15.1801 4.90078 15.8621C5.43516 18.4848 6.60234 20.7348 8.41641 22.6403C8.79609 23.041 9 23.3082 8.97891 23.3715C8.95781 23.4278 8.00156 25.1223 6.8625 27.1403C5.02031 30.3817 4.78125 30.8387 4.78125 31.1059C4.78125 31.5418 5.02734 31.7809 5.47734 31.7809C5.65312 31.7739 6.82734 31.5629 8.08594 31.2957C9.76641 30.9442 10.3852 30.8387 10.4203 30.902C10.4484 30.9442 10.8492 32.0551 11.3203 33.37C11.9391 35.1067 12.2062 35.7887 12.3258 35.8731C12.5508 36.0559 13.0641 36.0418 13.268 35.852C13.3523 35.7676 14.4633 33.8692 15.7289 31.6332C16.9945 29.3973 18.0492 27.5692 18.0703 27.5692C18.0914 27.5692 19.1461 29.3973 20.4117 31.6332C21.6773 33.8692 22.7883 35.7676 22.8797 35.852C23.1117 36.07 23.618 36.0559 23.843 35.8309C23.9625 35.7184 24.2648 34.952 24.8133 33.391C25.2563 32.1395 25.65 31.0496 25.6922 30.9653C25.7695 30.8176 25.7766 30.8176 28.0547 31.2957C29.3133 31.5559 30.4875 31.7739 30.6633 31.7809C31.1133 31.7809 31.3594 31.5418 31.3594 31.1059C31.3594 30.8317 31.1273 30.3887 29.2852 27.1403C28.1391 25.1293 27.1898 23.4348 27.1687 23.3785C27.1406 23.3082 27.3305 23.0551 27.7242 22.6403C29.5383 20.7348 30.7055 18.4848 31.2398 15.8621C31.3734 15.1801 31.3945 14.8707 31.3945 13.359C31.3945 11.8543 31.3734 11.5379 31.2328 10.8559C30.7055 8.24026 29.5102 5.91995 27.7102 4.05667C26.6062 2.91058 25.5164 2.11605 24.0258 1.3637C22.943 0.822296 21.4172 0.316048 21.0656 0.379326C20.7141 0.442608 20.4961 0.716827 20.4961 1.08949C20.4961 1.55355 20.6719 1.69417 21.6422 2.00355C25.875 3.36058 28.8352 6.69339 29.7914 11.1793C29.9883 12.1075 29.9672 14.7512 29.7562 15.7075C28.6734 20.566 25.0664 24.1168 20.2641 25.066C19.0336 25.3121 17.107 25.3121 15.8766 25.066C11.6016 24.2223 8.14922 21.22 6.78516 17.1418C6.3 15.6864 6.22969 15.2012 6.22969 13.359C6.22969 11.5168 6.3 11.0317 6.78516 9.5762C8.01562 5.90589 10.8703 3.13558 14.6039 1.97542C15.4547 1.70823 15.6445 1.54652 15.6445 1.08245C15.6445 0.843391 15.6023 0.737923 15.4617 0.590263C15.1734 0.301983 14.857 0.309013 13.9008 0.62542ZM10.8422 24.6371C12.368 25.6285 14.3508 26.3668 16.1156 26.5989C16.4602 26.6481 16.7414 26.7114 16.7484 26.7465C16.7695 26.8379 12.9797 33.4684 12.9305 33.4121C12.9094 33.384 12.593 32.5262 12.2344 31.4996C11.4891 29.3832 11.4117 29.2496 10.9055 29.2496C10.7297 29.2496 9.77344 29.4254 8.78906 29.6293C7.80469 29.8403 6.98906 30.002 6.98203 29.995C6.96094 29.9809 10.2094 24.2575 10.2375 24.2575C10.2516 24.2575 10.5258 24.4262 10.8422 24.6371ZM27.5625 27.1403C28.4484 28.7012 29.1656 29.9879 29.1586 29.995C29.1516 30.002 28.3359 29.8403 27.3516 29.6293C26.3672 29.4254 25.4109 29.2567 25.2352 29.2496C24.7289 29.2496 24.6516 29.3832 23.9062 31.4996C23.5477 32.5262 23.2312 33.384 23.2102 33.4121C23.168 33.4614 19.3992 26.9082 19.3781 26.7535C19.3781 26.7184 19.6594 26.6481 20.018 26.5989C21.8109 26.3598 23.9766 25.5442 25.3828 24.5809C25.6359 24.4051 25.8609 24.2715 25.8961 24.2785C25.9242 24.2856 26.6766 25.5723 27.5625 27.1403Z" fill="#0083FF"/>
<path d="M16.4883 2.88281C15.7359 3.00235 14.6742 3.30469 13.957 3.61407C12.5648 4.19766 11.5383 4.92188 10.4344 6.06797C9.02812 7.52344 8.13516 9.21094 7.69219 11.25C7.58672 11.7281 7.55859 12.143 7.55859 13.3594C7.55859 15.0047 7.62187 15.4617 8.02266 16.6852C8.54297 18.2742 9.3375 19.5398 10.6102 20.8195C12.1641 22.3734 13.8164 23.2734 15.9609 23.7375C16.8187 23.9273 19.3219 23.9273 20.1797 23.7375C22.3383 23.2664 23.9695 22.3734 25.5305 20.8195C27.0844 19.2586 27.9773 17.6273 28.4484 15.4688C28.6383 14.6109 28.6383 12.1078 28.4484 11.25C27.9773 9.09141 27.0844 7.46016 25.5305 5.89922C23.9977 4.36641 22.4367 3.50156 20.3273 3.00938C19.6312 2.84766 17.2266 2.77032 16.4883 2.88281ZM19.6172 4.4086C23.3438 5.02735 26.3883 8.07188 27.0281 11.8055C27.2672 13.1906 27.1406 14.9063 26.7047 16.207C25.9523 18.443 24.3492 20.3203 22.2117 21.4383C20.0812 22.5563 17.4516 22.7531 15.1453 21.9727C12.5508 21.0867 10.3219 18.8508 9.45 16.2633C8.83828 14.4422 8.83828 12.2766 9.45703 10.4414C9.86484 9.20391 10.7016 7.88203 11.6859 6.91172C13.8234 4.80938 16.6641 3.90938 19.6172 4.4086Z" fill="#0083FF"/>
<path d="M17.7398 6.57428C17.5359 6.65866 17.4094 6.87662 16.6008 8.48678L15.6937 10.3079L13.9078 10.5751C12.9305 10.7227 12.0094 10.8704 11.8687 10.9055C11.5242 10.9969 11.3203 11.2641 11.3203 11.6227C11.3203 11.904 11.3625 11.9532 12.7758 13.3735L14.2383 14.836L13.9359 16.6501C13.5773 18.8368 13.5703 18.9282 13.8445 19.2024C14.2102 19.561 14.3719 19.5118 16.3336 18.4993L18.0773 17.5922L19.8141 18.4993C21.7688 19.5118 21.9305 19.561 22.2961 19.2024C22.5703 18.9282 22.5633 18.8368 22.2047 16.6501L21.9023 14.836L23.3648 13.3735C24.7781 11.9532 24.8203 11.904 24.8203 11.6227C24.8203 11.2641 24.6164 10.9969 24.2719 10.9055C24.1312 10.8704 23.2102 10.7157 22.2328 10.5751L20.4469 10.3079L19.5398 8.48678C18.7031 6.82037 18.6047 6.66569 18.3867 6.56725C18.0914 6.44772 18.0281 6.44772 17.7398 6.57428ZM18.7172 10.2305C19.118 11.0251 19.3922 11.4962 19.5117 11.5735C19.6172 11.6438 20.2078 11.7633 21.0023 11.8899C21.7336 12.0024 22.3664 12.1008 22.4227 12.1079C22.4719 12.1219 22.0781 12.5508 21.5437 13.0712C21.0023 13.5915 20.5312 14.0837 20.482 14.161C20.3555 14.379 20.3695 14.6813 20.6016 16.0243C20.7141 16.6993 20.7984 17.2688 20.7844 17.2758C20.7703 17.2899 20.2078 17.0157 19.5328 16.6641C18.7031 16.2422 18.225 16.0313 18.0703 16.0313C17.9156 16.0313 17.4375 16.2422 16.6078 16.6712C15.9328 17.0157 15.3703 17.2969 15.3562 17.2829C15.3422 17.2688 15.4266 16.6993 15.5391 16.0243C15.7711 14.6813 15.7852 14.386 15.6586 14.161C15.6094 14.0766 15.1312 13.5915 14.5969 13.0712C14.0484 12.5438 13.6617 12.1219 13.718 12.1079C13.7742 12.1008 14.407 12.0024 15.1383 11.8899C15.9328 11.7633 16.5234 11.6438 16.6289 11.5735C16.7484 11.4962 17.0227 11.0251 17.4234 10.2305C17.7609 9.55553 18.0492 9.00006 18.0703 9.00006C18.0914 9.00006 18.3797 9.55553 18.7172 10.2305Z" fill="#0083FF"/>
</g>
<defs>
<clipPath id="clip0_2343_6745">
<rect width="36" height="36" fill="white"/>
</clipPath>
</defs>
</svg>
