<svg width="60" height="60" viewBox="0 0 60 60" fill="none" xmlns="http://www.w3.org/2000/svg">
<g opacity="0.6" clip-path="url(#clip0_2343_10744)">
<path d="M57.2329 14.0622C55.6157 9.23403 51.5376 4.8395 46.3579 2.34341C42.7134 0.585593 39.5376 -0.0940945 35.4829 0.0348115C32.3892 0.128561 30.2329 0.644186 27.7368 1.88637C21.8892 4.80434 19.1821 9.78481 19.3462 17.2731L19.3931 19.1364L18.4556 19.3004C10.7446 20.5895 4.24072 27.3278 2.62354 35.6833C2.31885 37.2536 2.34229 39.9958 2.68213 41.6012C3.3501 44.8004 4.72119 47.5543 7.01807 50.2848C8.31885 51.8434 10.7915 54.0465 11.4126 54.2106C11.811 54.3043 12.2798 54.07 12.5376 53.6481C12.9946 52.8981 12.9243 52.7692 11.0962 50.9528C9.87744 49.734 9.19775 48.9489 8.63525 48.1051C5.86963 43.9098 4.99072 39.0817 6.15088 34.4411C7.46338 29.1793 11.0024 25.1481 16.1704 23.027C16.9438 22.7106 19.4165 22.0309 19.7915 22.0309C19.9556 22.0309 20.0376 22.195 20.1431 22.7106C20.3657 23.7067 21.0454 25.7457 21.5845 27.0465C24.397 33.8434 29.2954 38.9411 34.4517 40.4645C39.4204 41.9293 43.2642 40.195 44.1313 36.0934C44.5884 33.9606 43.9673 31.6051 42.4204 29.5543C41.5415 28.3825 38.811 25.7223 37.3696 24.6442C33.1626 21.4918 28.4399 19.5817 23.6938 19.1129C23.0962 19.0543 22.5688 18.9723 22.522 18.9372C22.3813 18.7848 22.4282 14.3903 22.5923 13.5348C23.3188 9.74966 25.1704 6.85512 28.1353 4.88637C30.772 3.14028 33.6079 2.36684 36.9595 2.49575C39.8188 2.60122 42.2095 3.19887 44.9165 4.48794C49.5688 6.70278 53.3306 10.3708 55.5102 14.8239C56.0727 15.984 56.2485 16.1715 56.7407 16.1715C57.0923 16.1715 57.6548 15.7145 57.6548 15.445C57.6548 15.3629 57.4673 14.7418 57.2329 14.0622ZM41.6118 35.8122C41.2134 36.6793 40.0063 37.4293 38.3306 37.8629C35.6001 38.5661 33.479 37.6403 30.1157 34.3122C26.9634 31.195 24.6782 27.2106 23.1313 22.1012C23.061 21.902 23.1079 21.8903 23.7407 21.9606C28.3813 22.5231 34.4048 25.6051 38.4243 29.4723C40.0532 31.0426 41.0493 32.4606 41.6118 34.0192C41.8813 34.7926 41.8813 35.2145 41.6118 35.8122Z" fill="#0083FF"/>
<path d="M16.5559 55.1945C16.4387 53.1555 15.8294 49.4875 15.5012 48.8312C15.2786 48.3742 14.8567 48.2336 14.3528 48.4445C13.7903 48.6789 13.6614 48.9953 13.7551 49.9094C14.0247 52.8273 14.0715 53.7883 14.0012 55.4172L13.9192 57.2102L13.0169 57.1398C10.9192 56.9641 9.80591 56.8 8.37623 56.4602C6.74732 56.0852 5.97388 56.0734 5.4231 56.425C4.47388 57.0578 5.00123 58.5344 6.3606 59.0383C7.39185 59.425 11.0481 59.9055 13.4856 59.9641C15.8762 60.0344 16.0286 59.9992 16.4036 59.3781C16.6028 59.05 16.6379 58.8039 16.6145 57.4211C16.6028 56.5539 16.5794 55.5461 16.5559 55.1945Z" fill="#0083FF"/>
</g>
<defs>
<clipPath id="clip0_2343_10744">
<rect width="60" height="60" fill="white" transform="translate(60) rotate(90)"/>
</clipPath>
</defs>
</svg>
