<svg width="70" height="21" viewBox="0 0 70 21" fill="none" xmlns="http://www.w3.org/2000/svg">
<g clip-path="url(#clip0_2343_10894)">
<path d="M60.7034 20.9996C58.1441 20.9996 56.8983 18.7899 55.7966 16.8393C54.7542 15.0008 53.8644 13.4126 52.1356 13.4126C50.4068 13.4126 49.517 15.0008 48.4746 16.8393C47.3729 18.7899 46.1271 20.9996 43.5678 20.9996C41.0085 20.9996 39.7627 18.7899 38.661 16.8393C37.6186 15.0008 36.7288 13.4126 35 13.4126C33.2712 13.4126 32.3814 15.0008 31.339 16.8393C30.2373 18.7899 28.9915 20.9996 26.4322 20.9996C23.8729 20.9996 22.6271 18.7899 21.5254 16.8393C20.4831 15.0008 19.5932 13.4126 17.8644 13.4126C16.1356 13.4126 15.2373 15.0008 14.2034 16.8393C13.1017 18.7899 11.8559 20.9996 9.29661 20.9996C6.73729 20.9996 5.49153 18.7899 4.38983 16.8393C3.34746 15.0008 2.45763 13.4126 0.728814 13.4126C0.322034 13.4126 0 13.0846 0 12.679C0 12.2733 0.322034 11.9453 0.720339 11.9453C3.27966 11.9453 4.52542 14.1549 5.62712 16.1056C6.66949 17.9441 7.55932 19.5322 9.28814 19.5322C11.0169 19.5322 11.9153 17.9441 12.9492 16.1056C14.0508 14.1549 15.2966 11.9453 17.8559 11.9453C20.4153 11.9453 21.661 14.1549 22.7627 16.1056C23.8051 17.9441 24.6949 19.5322 26.4237 19.5322C28.1525 19.5322 29.0508 17.9441 30.0847 16.1056C31.1864 14.1549 32.4322 11.9453 34.9915 11.9453C37.5508 11.9453 38.7966 14.1549 39.8983 16.1056C40.9407 17.9441 41.8305 19.5322 43.5593 19.5322C45.2881 19.5322 46.178 17.9441 47.2203 16.1056C48.322 14.1549 49.5678 11.9453 52.1271 11.9453C54.6864 11.9453 55.9322 14.1549 57.0339 16.1056C58.0763 17.9441 58.9661 19.5322 60.6949 19.5322C62.4237 19.5322 63.322 17.9441 64.3559 16.1056C65.4576 14.1549 66.7034 11.9453 69.2627 11.9453C69.661 11.9453 69.9831 12.2733 69.9831 12.679C69.9831 13.0846 69.661 13.4126 69.2627 13.4126C67.5339 13.4126 66.6356 15.0008 65.6017 16.8393C64.517 18.7899 63.2627 20.9996 60.7034 20.9996Z" fill="url(#paint0_linear_2343_10894)"/>
<path d="M60.7034 9.05425C58.1441 9.05425 56.8983 6.84464 55.7966 4.89396C54.7542 3.05549 53.8644 1.46732 52.1356 1.46732C50.4068 1.46732 49.517 3.05549 48.4746 4.89396C47.3729 6.84464 46.1271 9.05425 43.5678 9.05425C41.0085 9.05425 39.7627 6.84464 38.661 4.89396C37.6186 3.05549 36.7203 1.46732 35 1.46732C33.2712 1.46732 32.3814 3.05549 31.339 4.89396C30.2373 6.84464 28.9915 9.05425 26.4322 9.05425C23.8729 9.05425 22.6271 6.84464 21.5254 4.89396C20.4831 3.05549 19.5932 1.46732 17.8644 1.46732C16.1356 1.46732 15.2373 3.05549 14.2034 4.89396C13.1017 6.84464 11.8559 9.05425 9.29661 9.05425C6.73729 9.05425 5.48305 6.84464 4.38136 4.89396C3.33898 3.05549 2.44915 1.46732 0.720339 1.46732C0.322034 1.46732 0 1.13933 0 0.733662C0 0.32799 0.322034 0 0.720339 0C3.27966 0 4.52542 2.20962 5.62712 4.1603C6.66949 6.0074 7.55932 7.59556 9.28814 7.59556C11.0169 7.59556 11.9153 6.0074 12.9492 4.16893C14.0508 2.20962 15.3051 0 17.8559 0C20.4068 0 21.661 2.20962 22.7627 4.1603C23.8051 5.99877 24.6949 7.58693 26.4237 7.58693C28.1525 7.58693 29.0508 5.99877 30.0847 4.1603C31.1864 2.20962 32.4407 0 35 0C37.5593 0 38.8051 2.20962 39.9068 4.1603C40.9492 5.99877 41.839 7.58693 43.5678 7.58693C45.2966 7.58693 46.1864 5.99877 47.2288 4.1603C48.3305 2.20962 49.5763 0 52.1356 0C54.6949 0 55.9407 2.20962 57.0424 4.1603C58.0847 5.99877 58.9746 7.58693 60.7034 7.58693C62.4322 7.58693 63.3305 5.99877 64.3644 4.1603C65.4661 2.20962 66.7203 0 69.2797 0C69.678 0 70 0.32799 70 0.733662C70 1.13933 69.678 1.46732 69.2797 1.46732C67.5508 1.46732 66.6525 3.05549 65.6186 4.89396C64.517 6.84464 63.2627 9.05425 60.7034 9.05425Z" fill="url(#paint1_linear_2343_10894)"/>
</g>
<defs>
<linearGradient id="paint0_linear_2343_10894" x1="0" y1="16.4725" x2="69.9966" y2="16.4725" gradientUnits="userSpaceOnUse">
<stop stop-color="#ED1E79"/>
<stop offset="1" stop-color="#6B00AA"/>
</linearGradient>
<linearGradient id="paint1_linear_2343_10894" x1="0" y1="4.52816" x2="69.9966" y2="4.52816" gradientUnits="userSpaceOnUse">
<stop stop-color="#ED1E79"/>
<stop offset="1" stop-color="#6B00AA"/>
</linearGradient>
<clipPath id="clip0_2343_10894">
<rect width="70" height="21" fill="white"/>
</clipPath>
</defs>
</svg>
