<svg width="24" height="24" viewBox="0 0 24 24" fill="none" xmlns="http://www.w3.org/2000/svg">
<path d="M4.98487 7.19729C6.19327 7.19729 7.17287 6.21769 7.17287 5.00929C7.17287 3.80089 6.19327 2.82129 4.98487 2.82129C3.77648 2.82129 2.79688 3.80089 2.79688 5.00929C2.79688 6.21769 3.77648 7.19729 4.98487 7.19729Z" fill="white"/>
<path d="M9.23575 8.85469V20.9937H13.0047V14.9907C13.0047 13.4067 13.3027 11.8727 15.2667 11.8727C17.2037 11.8727 17.2277 13.6837 17.2277 15.0907V20.9947H20.9987V14.3377C20.9987 11.0677 20.2947 8.55469 16.4727 8.55469C14.6377 8.55469 13.4077 9.56169 12.9047 10.5147H12.8537V8.85469H9.23575ZM3.09375 8.85469H6.86875V20.9937H3.09375V8.85469Z" fill="white"/>
</svg>
