<svg width="358" height="389" viewBox="0 0 358 389" fill="none" xmlns="http://www.w3.org/2000/svg">
<rect x="0.5" y="0.5" width="357" height="388" rx="9.5" fill="white" stroke="#E4E5E7"/>
<circle cx="30.9922" cy="29" r="12.5" stroke="white"/>
<circle cx="30.9922" cy="29" r="7" fill="#FFCE41"/>
<rect x="17.9922" y="341" width="189" height="4" fill="#BDBFC3"/>
<rect x="17.9922" y="361" width="147" height="4" fill="#BDBFC3"/>
<path d="M316.569 337C317.63 337.033 318.657 337.218 319.653 337.556H319.752C319.819 337.588 319.87 337.624 319.904 337.656C320.276 337.775 320.628 337.91 320.965 338.095L321.605 338.382C321.857 338.516 322.16 338.767 322.329 338.87C322.497 338.969 322.682 339.072 322.834 339.188C324.705 337.758 326.977 336.984 329.318 337C330.381 337 331.442 337.15 332.451 337.489C338.667 339.51 340.907 346.331 339.036 352.293C337.975 355.34 336.24 358.12 333.968 360.392C330.716 363.542 327.147 366.337 323.306 368.746L322.885 369L322.447 368.729C318.592 366.337 315.003 363.542 311.72 360.375C309.463 358.103 307.727 355.34 306.649 352.293C304.746 346.331 306.986 339.51 313.27 337.454C313.758 337.285 314.262 337.167 314.767 337.102H314.969C315.442 337.033 315.912 337 316.384 337H316.569ZM331.575 342.323C330.884 342.085 330.127 342.457 329.874 343.165C329.638 343.872 330.009 344.647 330.716 344.898C331.796 345.302 332.518 346.365 332.518 347.542V347.594C332.486 347.98 332.602 348.352 332.838 348.638C333.074 348.925 333.428 349.091 333.798 349.127C334.489 349.108 335.078 348.554 335.129 347.845V347.645C335.179 345.285 333.749 343.148 331.575 342.323Z" fill="#ED3E75"/>
</svg>
