<svg width="24" height="24" viewBox="0 0 24 24" fill="none" xmlns="http://www.w3.org/2000/svg">
<path d="M11.999 7.37695C10.7726 7.37695 9.59651 7.86412 8.72934 8.73129C7.86217 9.59846 7.375 10.7746 7.375 12.001C7.375 13.2273 7.86217 14.4034 8.72934 15.2706C9.59651 16.1378 10.7726 16.625 11.999 16.625C13.2254 16.625 14.4015 16.1378 15.2687 15.2706C16.1358 14.4034 16.623 13.2273 16.623 12.001C16.623 10.7746 16.1358 9.59846 15.2687 8.73129C14.4015 7.86412 13.2254 7.37695 11.999 7.37695ZM11.999 15.004C11.2023 15.004 10.4382 14.6875 9.87485 14.1241C9.31149 13.5607 8.995 12.7967 8.995 12C8.995 11.2032 9.31149 10.4392 9.87485 9.87581C10.4382 9.31245 11.2023 8.99595 11.999 8.99595C12.7957 8.99595 13.5598 9.31245 14.1232 9.87581C14.6865 10.4392 15.003 11.2032 15.003 12C15.003 12.7967 14.6865 13.5607 14.1232 14.1241C13.5598 14.6875 12.7957 15.004 11.999 15.004Z" fill="white"/>
<path d="M16.8046 8.28491C17.3999 8.28491 17.8826 7.80227 17.8826 7.20691C17.8826 6.61154 17.3999 6.12891 16.8046 6.12891C16.2092 6.12891 15.7266 6.61154 15.7266 7.20691C15.7266 7.80227 16.2092 8.28491 16.8046 8.28491Z" fill="white"/>
<path d="M20.531 6.11088C20.2995 5.51306 19.9457 4.97017 19.4923 4.51694C19.0389 4.06372 18.4959 3.71015 17.898 3.47888C17.1983 3.21624 16.4592 3.07422 15.712 3.05888C14.749 3.01688 14.444 3.00488 12.002 3.00488C9.56 3.00488 9.247 3.00488 8.292 3.05888C7.54539 3.07344 6.80676 3.21548 6.108 3.47888C5.50994 3.70988 4.96676 4.06335 4.51333 4.51661C4.0599 4.96987 3.70623 5.51291 3.475 6.11088C3.2123 6.8105 3.07061 7.54972 3.056 8.29688C3.013 9.25888 3 9.56388 3 12.0069C3 14.4489 3 14.7599 3.056 15.7169C3.071 16.4649 3.212 17.2029 3.475 17.9039C3.70688 18.5016 4.0609 19.0445 4.51444 19.4977C4.96798 19.9509 5.51106 20.3045 6.109 20.5359C6.80643 20.8091 7.54537 20.9613 8.294 20.9859C9.257 21.0279 9.562 21.0409 12.004 21.0409C14.446 21.0409 14.759 21.0409 15.714 20.9859C16.4611 20.9707 17.2002 20.829 17.9 20.5669C18.4978 20.3351 19.0406 19.9812 19.494 19.5279C19.9473 19.0745 20.3012 18.5316 20.533 17.9339C20.796 17.2339 20.937 16.4959 20.952 15.7479C20.995 14.7859 21.008 14.4809 21.008 12.0379C21.008 9.59488 21.008 9.28488 20.952 8.32788C20.9404 7.57016 20.7979 6.82013 20.531 6.11088ZM19.313 15.6429C19.3065 16.2192 19.2014 16.7901 19.002 17.3309C18.8518 17.7198 18.6219 18.0729 18.3271 18.3676C18.0322 18.6622 17.679 18.8919 17.29 19.0419C16.7552 19.2403 16.1904 19.3455 15.62 19.3529C14.67 19.3969 14.402 19.4079 11.966 19.4079C9.528 19.4079 9.279 19.4079 8.311 19.3529C7.74093 19.3459 7.17632 19.2407 6.642 19.0419C6.25169 18.8929 5.897 18.6636 5.60089 18.3688C5.30478 18.0741 5.07383 17.7205 4.923 17.3309C4.72645 16.7959 4.62131 16.2317 4.612 15.6619C4.569 14.7119 4.559 14.4439 4.559 12.0079C4.559 9.57088 4.559 9.32188 4.612 8.35288C4.61846 7.77691 4.72365 7.2063 4.923 6.66588C5.228 5.87688 5.853 5.25588 6.642 4.95388C7.17659 4.75602 7.74102 4.65085 8.311 4.64288C9.262 4.59988 9.529 4.58788 11.966 4.58788C14.403 4.58788 14.653 4.58788 15.62 4.64288C16.1904 4.64975 16.7554 4.75495 17.29 4.95388C17.6789 5.10416 18.0321 5.33409 18.327 5.62891C18.6218 5.92374 18.8517 6.27696 19.002 6.66588C19.1986 7.20083 19.3037 7.76504 19.313 8.33488C19.356 9.28588 19.367 9.55288 19.367 11.9899C19.367 14.4259 19.367 14.6879 19.324 15.6439H19.313V15.6429Z" fill="white"/>
</svg>
