<svg width="70" height="70" viewBox="0 0 70 70" fill="none" xmlns="http://www.w3.org/2000/svg">
<path d="M35 4.375C29.7803 4.38079 24.7761 6.45686 21.0852 10.1477C17.3944 13.8386 15.3183 18.8428 15.3125 24.0625V45.9375C15.3125 51.159 17.3867 56.1665 21.0788 59.8587C24.771 63.5508 29.7786 65.625 35 65.625C40.2214 65.625 45.229 63.5508 48.9212 59.8587C52.6133 56.1665 54.6875 51.159 54.6875 45.9375V24.0625C54.6817 18.8428 52.6056 13.8386 48.9148 10.1477C45.2239 6.45686 40.2197 4.38079 35 4.375ZM50.3125 45.9375C50.3125 49.9986 48.6992 53.8934 45.8276 56.7651C42.9559 59.6367 39.0611 61.25 35 61.25C30.9389 61.25 27.0441 59.6367 24.1724 56.7651C21.3008 53.8934 19.6875 49.9986 19.6875 45.9375V24.0625C19.6875 20.0014 21.3008 16.1066 24.1724 13.2349C27.0441 10.3633 30.9389 8.75 35 8.75C39.0611 8.75 42.9559 10.3633 45.8276 13.2349C48.6992 16.1066 50.3125 20.0014 50.3125 24.0625V45.9375Z" fill="#2D3958"/>
<path d="M35 17.5C34.4198 17.5 33.8634 17.7305 33.4532 18.1407C33.043 18.5509 32.8125 19.1073 32.8125 19.6875V28.4375C32.8125 29.0177 33.043 29.5741 33.4532 29.9843C33.8634 30.3945 34.4198 30.625 35 30.625C35.5802 30.625 36.1366 30.3945 36.5468 29.9843C36.957 29.5741 37.1875 29.0177 37.1875 28.4375V19.6875C37.1875 19.1073 36.957 18.5509 36.5468 18.1407C36.1366 17.7305 35.5802 17.5 35 17.5Z" fill="#2D3958"/>
</svg>
